<svg xmlns="http://www.w3.org/2000/svg" xmlns:xlink="http://www.w3.org/1999/xlink" width="1664" height="1664" preserveAspectRatio="xMidYMid meet" viewBox="0 0 1664 1664" style="-ms-transform: rotate(360deg); -webkit-transform: rotate(360deg); transform: rotate(360deg);"><path d="M896 1501l640-349V516L896 749v752zm-64-865l698-254-698-254-698 254zm832-252v768q0 35-18 65t-49 47l-704 384q-28 16-61 16t-61-16L67 1264q-31-17-49-47t-18-65V384q0-40 23-73t61-47L788 8q22-8 44-8t44 8l704 256q38 14 61 47t23 73z" fill="#626262"/><rect x="0" y="0" width="1664" height="1664" fill="rgba(0, 0, 0, 0)" /></svg>