<svg xmlns="http://www.w3.org/2000/svg" xmlns:xlink="http://www.w3.org/1999/xlink" width="1536" height="1792" preserveAspectRatio="xMidYMid meet" viewBox="0 0 1536 1792" style="-ms-transform: rotate(360deg); -webkit-transform: rotate(360deg); transform: rotate(360deg);"><path d="M768 768q237 0 443-43t325-127v170q0 69-103 128t-280 93.5-385 34.5-385-34.5T103 896 0 768V598q119 84 325 127t443 43zm0 768q237 0 443-43t325-127v170q0 69-103 128t-280 93.5-385 34.5-385-34.5-280-93.5T0 1536v-170q119 84 325 127t443 43zm0-384q237 0 443-43t325-127v170q0 69-103 128t-280 93.5-385 34.5-385-34.5-280-93.5T0 1152V982q119 84 325 127t443 43zM768 0q208 0 385 34.5t280 93.5 103 128v128q0 69-103 128t-280 93.5T768 640t-385-34.5T103 512 0 384V256q0-69 103-128t280-93.5T768 0z" fill="#626262"/><rect x="0" y="0" width="1536" height="1792" fill="rgba(0, 0, 0, 0)" /></svg>